<svg width="280" height="105" viewBox="0 0 280 105" fill="none" xmlns="http://www.w3.org/2000/svg">
<g clip-path="url(#clip0_3022_668)">
<path d="M137.778 46.4417V50.3712H117.818V61.5861H134.154V65.5155H117.818V80.5022H113.615V46.4399H137.777L137.778 46.4417Z" fill="#D0492A"/>
<path d="M156.793 81.0289C153.675 81.0289 150.848 80.3051 148.311 78.8537C145.771 77.4041 143.749 75.3686 142.244 72.749C140.737 70.1294 139.984 67.0367 139.984 63.4728C139.984 59.9089 140.737 56.8091 142.244 54.1715C143.749 51.534 145.771 49.4985 148.311 48.0668C150.848 46.6352 153.677 45.9185 156.793 45.9185C159.909 45.9185 162.736 46.6352 165.275 48.0668C167.813 49.5003 169.835 51.534 171.342 54.1715C172.847 56.8091 173.602 59.9089 173.602 63.4728C173.602 67.0367 172.847 70.1276 171.342 72.749C169.837 75.3686 167.815 77.4041 165.275 78.8537C162.736 80.3033 159.909 81.0289 156.793 81.0289ZM156.793 77.0977C159.174 77.0977 161.31 76.5817 163.201 75.5514C165.092 74.5211 166.597 72.9927 167.718 70.9662C168.839 68.9414 169.399 66.4418 169.399 63.4728C169.399 60.5038 168.839 58.015 167.718 56.0046C166.597 53.9959 165.092 52.4675 163.201 51.4193C161.31 50.3711 159.174 49.8479 156.793 49.8479C154.411 49.8479 152.319 50.3711 150.412 51.4193C148.503 52.4675 146.989 53.9959 145.868 56.0046C144.747 58.0132 144.187 60.5038 144.187 63.4728C144.187 66.4418 144.747 68.9414 145.868 70.9662C146.989 72.9927 148.503 74.5211 150.412 75.5514C152.319 76.5817 154.447 77.0977 156.793 77.0977Z" fill="#D0492A"/>
<path d="M195.66 81.0289C192.542 81.0289 189.715 80.3051 187.178 78.8537C184.638 77.4041 182.616 75.3686 181.111 72.749C179.604 70.1294 178.852 67.0367 178.852 63.4728C178.852 59.9089 179.604 56.8091 181.111 54.1715C182.616 51.534 184.638 49.4985 187.178 48.0668C189.715 46.6352 192.544 45.9185 195.66 45.9185C198.776 45.9185 201.603 46.6352 204.143 48.0668C206.68 49.5003 208.703 51.534 210.209 54.1715C211.714 56.8091 212.469 59.9089 212.469 63.4728C212.469 67.0367 211.714 70.1276 210.209 72.749C208.704 75.3686 206.682 77.4041 204.143 78.8537C201.603 80.3033 198.776 81.0289 195.66 81.0289ZM195.66 77.0977C198.042 77.0977 200.177 76.5817 202.068 75.5514C203.959 74.5211 205.464 72.9927 206.585 70.9662C207.706 68.9414 208.266 66.4418 208.266 63.4728C208.266 60.5038 207.706 58.015 206.585 56.0046C205.464 53.9959 203.959 52.4675 202.068 51.4193C200.177 50.3711 198.042 49.8479 195.66 49.8479C193.279 49.8479 191.186 50.3711 189.279 51.4193C187.37 52.4675 185.856 53.9959 184.735 56.0046C183.615 58.0132 183.054 60.5038 183.054 63.4728C183.054 66.4418 183.615 68.9414 184.735 70.9662C185.856 72.9927 187.37 74.5211 189.279 75.5514C191.186 76.5817 193.315 77.0977 195.66 77.0977Z" fill="#D0492A"/>
<path d="M230.38 46.4419C233.812 46.4419 236.691 46.8881 239.02 47.7786C241.348 48.6691 243.214 49.9001 244.615 51.4733C246.016 53.0447 247.03 54.8455 247.661 56.8702C248.291 58.8968 248.605 61.0451 248.605 63.3154C248.605 65.5856 248.271 67.7519 247.607 69.8143C246.941 71.8766 245.881 73.7096 244.43 75.3169C242.977 76.9242 241.095 78.191 238.783 79.1155C236.472 80.0419 233.67 80.5042 230.38 80.5042H219.297V46.4419H230.38ZM223.499 76.5747H230.38C233.146 76.5747 235.43 76.1913 237.235 75.4226C239.038 74.6539 240.466 73.6326 241.517 72.3568C242.567 71.0811 243.311 69.6584 243.749 68.0852C244.187 66.5137 244.406 64.9244 244.406 63.3172C244.406 61.7099 244.187 60.1385 243.749 58.6011C243.311 57.0637 242.567 55.6751 241.517 54.4352C240.466 53.1952 239.038 52.2079 237.235 51.4751C235.432 50.7422 233.146 50.3749 230.38 50.3749H223.499V76.5765V76.5747Z" fill="#D0492A"/>
<path d="M253.122 69.4469H256.904C257.008 70.9144 257.446 72.2242 258.217 73.3763C258.987 74.5284 260.047 75.4387 261.394 76.1016C262.741 76.7664 264.327 77.0979 266.148 77.0979C267.723 77.0979 269.045 76.8614 270.113 76.3901C271.182 75.9189 271.987 75.2631 272.529 74.4245C273.071 73.5859 273.342 72.6076 273.342 71.4895C273.342 70.3714 273.062 69.411 272.502 68.7122C271.942 68.0134 271.137 67.4203 270.086 66.9312C269.036 66.442 267.793 65.9708 266.358 65.5156C264.993 65.0964 263.608 64.6072 262.209 64.0481C260.808 63.4891 259.504 62.8082 258.296 62.0037C257.087 61.201 256.115 60.2316 255.381 59.0956C254.646 57.9614 254.278 56.5888 254.278 54.9816C254.278 53.3743 254.707 51.9337 255.566 50.554C256.424 49.1743 257.683 48.0563 259.348 47.1998C261.011 46.3433 263.016 45.915 265.363 45.915C269.039 45.915 271.789 46.9113 273.61 48.902C275.431 50.8927 276.306 53.532 276.236 56.8146H272.453C272.383 54.3348 271.683 52.5519 270.352 51.4696C269.021 50.3874 267.288 49.8445 265.153 49.8445C263.368 49.8445 261.809 50.2548 260.478 51.0754C259.147 51.8961 258.483 53.1808 258.483 54.9278C258.483 55.6965 258.632 56.3685 258.93 56.9454C259.226 57.5224 259.718 58.0545 260.401 58.5437C261.083 59.0329 262.012 59.5131 263.184 59.9843C264.357 60.4556 265.801 60.9716 267.518 61.5307C268.639 61.8801 269.785 62.2993 270.959 62.7885C272.132 63.2777 273.219 63.8887 274.215 64.6233C275.214 65.3562 276.018 66.2915 276.631 67.4275C277.243 68.5635 277.55 69.988 277.55 71.6992C277.55 73.4103 277.157 74.8689 276.369 76.2844C275.58 77.6999 274.355 78.8449 272.692 79.7175C271.029 80.5901 268.885 81.0273 266.257 81.0273C264.016 81.0273 262.098 80.7209 260.505 80.1099C258.912 79.4989 257.606 78.7033 256.591 77.725C255.575 76.7467 254.797 75.7254 254.255 74.6592C253.711 73.5931 253.353 72.5897 253.177 71.6454C253.001 70.7029 252.985 69.9683 253.125 69.4451L253.122 69.4469Z" fill="#D0492A"/>
<path d="M125.722 19.151C123.714 15.5047 123.041 13.3151 122.945 12.5715C122.942 12.55 122.94 12.5285 122.938 12.5088H120.032C119.968 13.1915 119.314 15.4008 117.249 19.151C114.253 24.5945 114.219 29.5919 114.219 29.8033H116.643C116.643 29.7603 116.69 25.1912 119.373 20.3157C120.311 18.6135 120.999 17.1567 121.485 15.9652C121.97 17.1585 122.66 18.6135 123.597 20.3157C126.261 25.1536 126.327 29.6922 126.327 29.8033H127.54H128.752C128.752 29.5937 128.718 24.5963 125.722 19.151Z" fill="#D0492A"/>
<path d="M202.955 30.0592C197.709 30.2993 193.388 25.99 193.629 20.7544C193.839 16.1906 197.544 12.4941 202.118 12.2845C207.366 12.0444 211.686 16.3537 211.445 21.5893C211.235 26.1531 207.53 29.8496 202.955 30.0592ZM202.962 14.707C199.049 14.4579 195.807 17.6904 196.059 21.5947C196.265 24.8235 198.878 27.4306 202.115 27.6367C206.028 27.8858 209.27 24.6533 209.018 20.749C208.812 17.5219 206.199 14.9148 202.962 14.707Z" fill="#D0492A"/>
<path d="M156.497 27.3862H147.738C148.048 25.5926 148.727 23.0016 150.205 20.3157C152.436 16.2626 153.269 13.5373 153.298 12.498H150.875L150.87 12.5249C150.87 12.5249 150.178 15.3416 148.081 19.1528C145.085 24.5963 145.051 29.5937 145.051 29.8033H146.173H146.522H147.474H156.497V27.3844V27.3862Z" fill="#D0492A"/>
<path d="M142.625 27.3862H133.866C134.177 25.5926 134.856 23.0016 136.334 20.3157C138.565 16.2626 139.398 13.5373 139.427 12.498H137.004L136.999 12.5249C136.999 12.5249 136.307 15.3416 134.21 19.1528C131.214 24.5963 131.18 29.5937 131.18 29.8033H132.302H132.651H133.602H142.625V27.3844V27.3862Z" fill="#D0492A"/>
<path d="M173.26 23.3166C172.856 24.4311 172.149 25.4327 171.216 26.1889C170.047 27.1403 168.569 27.6635 167.057 27.6635C165.694 27.6635 164.386 27.2532 163.275 26.4738C162.899 26.2104 162.556 25.9129 162.247 25.5868H162.254C162.38 25.1442 162.759 24.0602 163.433 23.2503C164.751 21.6646 166.84 20.8367 169.64 20.7902C174.305 20.7113 175.424 18.296 175.538 18.02C174.889 16.3429 173.763 14.9094 172.281 13.8774C170.687 12.7664 168.797 12.2038 166.838 12.2647C161.978 12.4152 158.082 16.454 158.108 21.3026C158.113 22.2666 158.269 23.2109 158.574 24.1122L158.567 24.1157C159.198 25.8771 160.345 27.3768 161.884 28.4537C163.406 29.5198 165.194 30.0825 167.059 30.0825C169.128 30.0825 171.148 29.3657 172.75 28.0649C174.248 26.8483 175.322 25.1711 175.796 23.3166H173.262H173.26ZM166.908 14.6819C168.343 14.6371 169.728 15.0456 170.893 15.8591C171.597 16.3501 172.19 16.9646 172.65 17.6688C172.149 17.9752 171.215 18.3425 169.6 18.3694C165.099 18.4447 162.693 20.292 161.466 21.8276C161.175 22.1913 160.936 22.5551 160.739 22.9009C160.608 22.3956 160.538 21.8742 160.53 21.3456C160.482 17.7835 163.339 14.793 166.908 14.6801" fill="#D0492A"/>
<path d="M180.694 23.1611C182.702 26.8074 183.373 28.997 183.47 29.7406C183.474 29.7621 183.476 29.7836 183.478 29.8033H186.384C186.448 29.1206 187.102 26.9114 189.167 23.1611C192.163 17.7176 192.197 12.7202 192.197 12.5088H189.773C189.773 12.5518 189.726 17.1209 187.043 21.9964C186.105 23.6986 185.417 25.1554 184.931 26.3469C184.446 25.1536 183.756 23.6986 182.819 21.9964C180.155 17.1585 180.089 12.6199 180.089 12.5088H178.876H177.664C177.664 12.7184 177.698 17.7158 180.694 23.1611Z" fill="#D0492A"/>
<path d="M45.1228 45.4312C44.9468 45.4312 30.7245 45.5835 13.3627 52.5555C13.0646 52.6719 12.7665 52.7938 12.4683 52.9228C10.4461 53.756 8.38966 54.677 6.30273 55.709V43.7989C26.9834 34.7628 44.2859 34.6392 45.1103 34.6392V34.6445L45.1228 45.4294V45.4312Z" fill="#C1C1C1"/>
<path d="M83.9324 49.9915V62.76C63.2571 71.8032 45.96 71.9197 45.1356 71.9197L45.123 60.5507C45.2218 60.5507 45.3152 60.5507 45.4158 60.5381C45.4858 60.5381 45.5738 60.5327 45.6672 60.5256C45.6672 60.5256 45.6672 60.531 45.6726 60.5256C48.442 60.3858 61.3282 59.3949 76.7844 53.1917C77.0412 53.086 77.2926 52.9874 77.5494 52.8763C79.6418 52.0199 81.7736 51.063 83.9306 49.9897" fill="#C1C1C1"/>
<path d="M52.6979 52.9911C52.6979 57.1642 49.3071 60.5472 45.1243 60.5472C40.9414 60.5472 37.5488 57.1642 37.5488 52.9911C37.5488 48.818 40.9396 45.4351 45.1243 45.4351C49.3089 45.4351 52.6979 48.818 52.6979 52.9911Z" fill="#C1C1C1"/>
<path d="M83.9314 44.1432V56.1179C81.7978 55.0518 79.666 53.9731 77.5503 52.8765C66.5176 47.1983 55.6896 41.1688 45.1113 34.6448V21.9355C57.7694 29.9234 70.6897 37.3039 83.9314 44.1432Z" fill="#C1C1C1"/>
<path d="M12.4683 52.9229C10.4227 51.8209 8.36631 50.7369 6.30273 49.6689V61.83C19.5499 68.6747 32.4773 76.0605 45.1336 84.043V71.916C34.4457 65.3222 23.5711 58.8968 12.4665 52.9211" fill="#C1C1C1"/>
<path d="M6.36073 46.6821L-0.0078125 53.0377L6.36073 59.3932L12.7311 53.0323L6.36073 46.6821Z" fill="#F85B18"/>
<path d="M90.3361 53.0377L83.9657 46.6768L77.5918 53.0323L83.9657 59.3932L90.3361 53.0377Z" fill="#F85B18"/>
<path d="M54.8203 95.0232L63.6278 103.81L82.7891 71.6562L73.7823 76.1035L54.8203 95.0232Z" fill="#FFB146"/>
<path d="M80.7461 75.0589H90.2073V65.6196L80.7461 75.0589Z" fill="#FFB146"/>
<path d="M58.2717 85.0267L51.5332 91.7496L57.7796 97.9761L83.4747 72.3407L90.206 65.6196L83.965 59.3931L77.2283 66.1141L58.2717 85.0267Z" fill="#FF7B00"/>
<path d="M35.4278 95.1111L26.6203 103.898L7.45898 71.7441L16.4658 76.1914L35.4278 95.1111Z" fill="#FFB146"/>
<path d="M25.8163 91.2532L6.85976 72.3407L0.123047 65.6196L6.36946 59.3931L13.1008 66.1088L32.0645 85.0267L38.7959 91.7442L32.5548 97.9761L25.8163 91.2532Z" fill="#FF7B00"/>
<path d="M9.58426 75.0589H0.123047V65.6196L9.58426 75.0589Z" fill="#FFB146"/>
<path d="M35.5098 11.0517L26.7023 2.26465L7.54102 34.4187L16.5478 29.9714L35.5098 11.0517Z" fill="#FFB146"/>
<path d="M9.58426 31.0161H0.123047V40.4554L9.58426 31.0161Z" fill="#FFB146"/>
<path d="M32.0573 21.0485L38.7959 14.3257L32.5494 8.09912L6.85438 33.7345L0.123047 40.4556L6.36407 46.6821L13.1008 39.9611L32.0573 21.0485Z" fill="#FF7B00"/>
<path d="M54.9023 10.9643L63.7098 2.17725L82.8711 34.3313L73.8643 29.884L54.9023 10.9643Z" fill="#FFB146"/>
<path d="M64.5127 14.822L83.4693 33.7345L90.206 40.4556L83.9596 46.6839L77.2283 39.9664L58.2645 21.0485L51.5332 14.331L57.7742 8.09912L64.5127 14.822Z" fill="#FF7B00"/>
<path d="M80.7461 31.0161H90.2073V40.4554L80.7461 31.0161Z" fill="#FFB146"/>
<path d="M59.2375 22.0161L45.1031 7.91455L30.9688 22.0161H59.2375Z" fill="#F85B18"/>
<path d="M30.9688 84.5229L45.1031 98.6245L59.2375 84.5229H30.9688Z" fill="#F85B18"/>
</g>
<defs>
<clipPath id="clip0_3022_668">
<rect width="280" height="105" fill="white"/>
</clipPath>
</defs>
</svg>
