<svg width="320" height="120" viewBox="0 0 320 120" fill="none" xmlns="http://www.w3.org/2000/svg">
<g clip-path="url(#clip0_3022_668)">
<path d="M157.463 53.0768V57.5675H134.651V70.3846H153.321V74.8754H134.651V92.003H129.848V53.0747H157.461L157.463 53.0768Z" fill="#D0492A"/>
<path d="M179.192 92.6048C175.629 92.6048 172.398 91.7775 169.498 90.1188C166.596 88.4621 164.285 86.1359 162.565 83.142C160.842 80.1481 159.982 76.6137 159.982 72.5406C159.982 68.4676 160.842 64.9249 162.565 61.9106C164.285 58.8963 166.596 56.57 169.498 54.9338C172.398 53.2976 175.631 52.4785 179.192 52.4785C182.753 52.4785 185.984 53.2976 188.886 54.9338C191.787 56.572 194.098 58.8963 195.82 61.9106C197.54 64.9249 198.402 68.4676 198.402 72.5406C198.402 76.6137 197.54 80.1461 195.82 83.142C194.1 86.1359 191.789 88.4621 188.886 90.1188C185.984 91.7754 182.753 92.6048 179.192 92.6048ZM179.192 88.112C181.914 88.112 184.354 87.5222 186.516 86.3447C188.677 85.1673 190.397 83.4205 191.678 81.1045C192.959 78.7905 193.599 75.9338 193.599 72.5406C193.599 69.1475 192.959 66.3031 191.678 64.0055C190.397 61.7099 188.677 59.9632 186.516 58.7652C184.354 57.5672 181.914 56.9693 179.192 56.9693C176.471 56.9693 174.079 57.5672 171.899 58.7652C169.718 59.9632 167.987 61.7099 166.707 64.0055C165.426 66.301 164.785 69.1475 164.785 72.5406C164.785 75.9338 165.426 78.7905 166.707 81.1045C167.987 83.4205 169.718 85.1673 171.899 86.3447C174.079 87.5222 176.512 88.112 179.192 88.112Z" fill="#D0492A"/>
<path d="M223.614 92.6048C220.051 92.6048 216.82 91.7775 213.92 90.1188C211.018 88.4621 208.706 86.1359 206.986 83.142C205.264 80.1481 204.404 76.6137 204.404 72.5406C204.404 68.4676 205.264 64.9249 206.986 61.9106C208.706 58.8963 211.018 56.57 213.92 54.9338C216.82 53.2976 220.053 52.4785 223.614 52.4785C227.175 52.4785 230.406 53.2976 233.308 54.9338C236.209 56.572 238.52 58.8963 240.242 61.9106C241.962 64.9249 242.824 68.4676 242.824 72.5406C242.824 76.6137 241.962 80.1461 240.242 83.142C238.522 86.1359 236.211 88.4621 233.308 90.1188C230.406 91.7754 227.175 92.6048 223.614 92.6048ZM223.614 88.112C226.336 88.112 228.776 87.5222 230.938 86.3447C233.099 85.1673 234.819 83.4205 236.1 81.1045C237.381 78.7905 238.021 75.9338 238.021 72.5406C238.021 69.1475 237.381 66.3031 236.1 64.0055C234.819 61.7099 233.099 59.9632 230.938 58.7652C228.776 57.5672 226.336 56.9693 223.614 56.9693C220.892 56.9693 218.501 57.5672 216.321 58.7652C214.14 59.9632 212.409 61.7099 211.128 64.0055C209.848 66.301 209.207 69.1475 209.207 72.5406C209.207 75.9338 209.848 78.7905 211.128 81.1045C212.409 83.4205 214.14 85.1673 216.321 86.3447C218.501 87.5222 220.933 88.112 223.614 88.112Z" fill="#D0492A"/>
<path d="M263.291 53.0767C267.214 53.0767 270.504 53.5866 273.166 54.6043C275.826 55.6221 277.959 57.0289 279.56 58.8268C281.161 60.6227 282.32 62.6808 283.041 64.9948C283.761 67.3108 284.121 69.7661 284.121 72.3606C284.121 74.9552 283.739 77.4309 282.979 79.7879C282.218 82.1449 281.007 84.2398 279.348 86.0767C277.688 87.9135 275.537 89.3613 272.895 90.418C270.254 91.4767 267.052 92.005 263.291 92.005H250.625V53.0767H263.291ZM255.428 87.5142H263.291C266.452 87.5142 269.063 87.076 271.126 86.1975C273.187 85.319 274.818 84.1517 276.019 82.6937C277.22 81.2357 278.07 79.6098 278.57 77.8118C279.071 76.0159 279.322 74.1995 279.322 72.3627C279.322 70.5258 279.071 68.7299 278.57 66.9729C278.07 65.2159 277.22 63.6289 276.019 62.2118C274.818 60.7947 273.187 59.6664 271.126 58.8289C269.065 57.9913 266.452 57.5715 263.291 57.5715H255.428V87.5163V87.5142Z" fill="#D0492A"/>
<path d="M289.283 79.3681H293.606C293.725 81.0453 294.225 82.5422 295.106 83.8589C295.986 85.1756 297.197 86.2159 298.737 86.9736C300.276 87.7333 302.089 88.1122 304.17 88.1122C305.97 88.1122 307.481 87.8418 308.702 87.3033C309.923 86.7647 310.843 86.0152 311.463 85.0569C312.083 84.0985 312.392 82.9804 312.392 81.7026C312.392 80.4248 312.072 79.3272 311.432 78.5285C310.792 77.7299 309.872 77.0521 308.671 76.493C307.471 75.934 306.05 75.3954 304.41 74.8753C302.85 74.3961 301.268 73.8371 299.669 73.1982C298.068 72.5593 296.578 71.7811 295.196 70.8616C293.815 69.9442 292.704 68.8364 291.865 67.5381C291.025 66.2418 290.605 64.6732 290.605 62.8364C290.605 60.9995 291.095 59.3531 292.076 57.7763C293.057 56.1995 294.496 54.9217 296.399 53.9429C298.3 52.964 300.59 52.4746 303.273 52.4746C307.475 52.4746 310.617 53.6132 312.698 55.8883C314.78 58.1633 315.779 61.1797 315.699 64.9313H311.376C311.296 62.0971 310.496 60.0596 308.975 58.8227C307.454 57.5859 305.473 56.9654 303.033 56.9654C300.993 56.9654 299.211 57.4343 297.69 58.3722C296.169 59.3101 295.41 60.7784 295.41 62.7749C295.41 63.6534 295.58 64.4214 295.921 65.0808C296.259 65.7401 296.822 66.3483 297.602 66.9074C298.382 67.4664 299.443 68.0152 300.783 68.5538C302.124 69.0924 303.774 69.6821 305.736 70.321C307.017 70.7203 308.326 71.1995 309.669 71.7586C311.009 72.3176 312.251 73.0159 313.39 73.8555C314.531 74.693 315.451 75.762 316.151 77.0603C316.851 78.3586 317.202 79.9866 317.202 81.9422C317.202 83.8978 316.752 85.5647 315.851 87.1825C314.95 88.8002 313.55 90.1087 311.649 91.106C309.749 92.1033 307.298 92.6029 304.295 92.6029C301.734 92.6029 299.541 92.2528 297.721 91.5545C295.9 90.8562 294.408 89.947 293.248 88.8289C292.087 87.7108 291.198 86.5435 290.578 85.3251C289.956 84.1067 289.548 82.9599 289.347 81.8807C289.145 80.8036 289.127 79.964 289.287 79.3661L289.283 79.3681Z" fill="#D0492A"/>
<path d="M143.684 21.8865C141.389 17.7193 140.619 15.2169 140.51 14.3671C140.506 14.3425 140.504 14.3179 140.502 14.2954H137.181C137.107 15.0756 136.36 17.6005 134 21.8865C130.576 28.1077 130.537 33.819 130.537 34.0606H133.308C133.308 34.0114 133.361 28.7896 136.428 23.2176C137.499 21.2722 138.285 19.6074 138.842 18.2456C139.396 19.6094 140.184 21.2722 141.256 23.2176C144.299 28.7466 144.375 33.9336 144.375 34.0606H145.761H147.146C147.146 33.821 147.107 28.1097 143.684 21.8865Z" fill="#D0492A"/>
<path d="M231.949 34.3537C225.954 34.6281 221.015 29.7032 221.29 23.7196C221.53 18.5039 225.765 14.2793 230.993 14.0397C236.99 13.7653 241.927 18.6903 241.652 24.6739C241.411 29.8896 237.177 34.1142 231.949 34.3537ZM231.957 16.8083C227.485 16.5237 223.78 20.2179 224.067 24.68C224.303 28.3701 227.29 31.3496 230.989 31.5851C235.461 31.8698 239.166 28.1756 238.879 23.7135C238.643 20.0254 235.656 17.0459 231.957 16.8083Z" fill="#D0492A"/>
<path d="M178.852 31.2982H168.842C169.197 29.2484 169.973 26.2873 171.662 23.2177C174.212 18.5856 175.164 15.4709 175.197 14.2832H172.428L172.422 14.3139C172.422 14.3139 171.632 17.533 169.234 21.8887C165.81 28.1098 165.771 33.8211 165.771 34.0607H167.054H167.453H168.54H178.852V31.2962V31.2982Z" fill="#D0492A"/>
<path d="M162.999 31.2982H152.989C153.344 29.2484 154.12 26.2873 155.809 23.2177C158.358 18.5856 159.31 15.4709 159.343 14.2832H156.574L156.568 14.3139C156.568 14.3139 155.778 17.533 153.381 21.8887C149.957 28.1098 149.918 33.8211 149.918 34.0607H151.201H151.599H152.687H162.999V31.2962V31.2982Z" fill="#D0492A"/>
<path d="M198.011 26.6475C197.549 27.9213 196.74 29.066 195.675 29.9301C194.339 31.0175 192.65 31.6155 190.921 31.6155C189.363 31.6155 187.869 31.1465 186.599 30.2557C186.17 29.9547 185.778 29.6148 185.425 29.2421H185.433C185.577 28.7363 186.01 27.4974 186.779 26.5718C188.286 24.7595 190.673 23.8134 193.873 23.7602C199.205 23.6701 200.484 20.9097 200.613 20.5943C199.872 18.6776 198.586 17.0394 196.892 15.8598C195.07 14.5902 192.91 13.9472 190.671 14.0168C185.117 14.1888 180.665 18.8045 180.693 24.3458C180.7 25.4475 180.878 26.5267 181.227 27.5568L181.219 27.5609C181.939 29.5738 183.251 31.2878 185.01 32.5185C186.748 33.737 188.793 34.38 190.923 34.38C193.288 34.38 195.597 33.5609 197.428 32.0742C199.14 30.6837 200.367 28.767 200.909 26.6475H198.013H198.011ZM190.751 16.7793C192.391 16.7281 193.973 17.195 195.306 18.1247C196.11 18.6858 196.788 19.3882 197.313 20.1929C196.74 20.5431 195.673 20.9629 193.828 20.9936C188.684 21.0796 185.934 23.1909 184.532 24.9458C184.199 25.3615 183.926 25.7772 183.7 26.1725C183.551 25.595 183.471 24.9991 183.462 24.395C183.407 20.324 186.673 16.9062 190.751 16.7772" fill="#D0492A"/>
<path d="M206.508 26.4695C208.802 30.6367 209.57 33.1391 209.681 33.9889C209.685 34.0135 209.687 34.0381 209.689 34.0606H213.01C213.084 33.2804 213.831 30.7555 216.191 26.4695C219.615 20.2483 219.654 14.537 219.654 14.2954H216.883C216.883 14.3446 216.83 19.5664 213.763 25.1384C212.692 27.0838 211.906 28.7487 211.35 30.1104C210.795 28.7466 210.007 27.0838 208.936 25.1384C205.892 19.6094 205.816 14.4224 205.816 14.2954H204.43H203.045C203.045 14.535 203.084 20.2463 206.508 26.4695Z" fill="#D0492A"/>
<path d="M51.5689 51.9217C51.3678 51.9217 35.1137 52.0957 15.2717 60.0637C14.931 60.1968 14.5902 60.336 14.2495 60.4834C11.9384 61.4357 9.58819 62.4882 7.20312 63.6677V50.0561C30.8382 39.7292 50.6125 39.5879 51.5546 39.5879V39.594L51.5689 51.9196V51.9217Z" fill="#C1C1C1"/>
<path d="M95.9219 57.1334V71.7259C72.2929 82.061 52.5248 82.1941 51.5827 82.1941L51.5684 69.201C51.6812 69.201 51.788 69.201 51.9029 69.1866C51.983 69.1866 52.0835 69.1805 52.1903 69.1723C52.1903 69.1723 52.1903 69.1784 52.1964 69.1723C55.3615 69.0126 70.0885 67.8802 87.7527 60.7907C88.0462 60.6699 88.3336 60.5573 88.6271 60.4303C91.0183 59.4515 93.4547 58.358 95.9198 57.1313" fill="#C1C1C1"/>
<path d="M60.2254 60.5613C60.2254 65.3306 56.3501 69.1968 51.5698 69.1968C46.7894 69.1968 42.9121 65.3306 42.9121 60.5613C42.9121 55.792 46.7873 51.9258 51.5698 51.9258C56.3522 51.9258 60.2254 55.792 60.2254 60.5613Z" fill="#C1C1C1"/>
<path d="M95.9225 50.449V64.1344C93.484 62.9159 91.0477 61.6832 88.6298 60.4299C76.021 53.9405 63.6461 47.0497 51.5566 39.5938V25.0688C66.023 34.1979 80.789 42.6327 95.9225 50.449Z" fill="#C1C1C1"/>
<path d="M14.2495 60.4834C11.9117 59.224 9.5615 57.9851 7.20312 56.7646V70.6629C22.3427 78.4855 37.117 86.9264 51.5813 96.0493V82.1899C39.3665 74.6541 26.9384 67.3107 14.2475 60.4814" fill="#C1C1C1"/>
<path d="M7.27052 53.3506L-0.0078125 60.6141L7.27052 67.8775L14.5509 60.6079L7.27052 53.3506Z" fill="#F85B18"/>
<path d="M103.241 60.6144L95.9603 53.3447L88.6758 60.6082L95.9603 67.8778L103.241 60.6144Z" fill="#F85B18"/>
<path d="M62.6523 108.598L72.718 118.641L94.6167 81.8931L84.3231 86.9757L62.6523 108.598Z" fill="#FFB146"/>
<path d="M92.2812 85.7814H103.094V74.9937L92.2812 85.7814Z" fill="#FFB146"/>
<path d="M66.5976 97.1735L58.8965 104.857L66.0352 111.973L95.401 82.6752L103.094 74.994L95.9614 67.8779L88.2623 75.5592L66.5976 97.1735Z" fill="#FF7B00"/>
<path d="M40.4878 108.698L30.4221 118.741L8.52344 81.9932L18.817 87.0757L40.4878 108.698Z" fill="#FFB146"/>
<path d="M29.5044 104.29L7.83973 82.6752L0.140625 74.994L7.27938 67.8779L14.9723 75.553L36.6452 97.1735L44.3381 104.851L37.2055 111.973L29.5044 104.29Z" fill="#FF7B00"/>
<path d="M10.9534 85.7814H0.140625V74.9937L10.9534 85.7814Z" fill="#FFB146"/>
<path d="M40.5835 12.6307L30.5178 2.58838L8.61914 39.3358L18.9127 34.2532L40.5835 12.6307Z" fill="#FFB146"/>
<path d="M10.9534 35.4473H0.140625V46.235L10.9534 35.4473Z" fill="#FFB146"/>
<path d="M36.637 24.0552L44.3381 16.3719L37.1994 9.25586L7.83357 38.5535L0.140625 46.2347L7.27323 53.3507L14.9723 45.6695L36.637 24.0552Z" fill="#FF7B00"/>
<path d="M62.7461 12.5301L72.8118 2.48779L94.7104 39.2352L84.4169 34.1526L62.7461 12.5301Z" fill="#FFB146"/>
<path d="M73.7302 16.9391L95.3949 38.5535L103.094 46.2347L95.9552 53.3528L88.2623 45.6757L66.5894 24.0552L58.8965 16.378L66.0291 9.25586L73.7302 16.9391Z" fill="#FF7B00"/>
<path d="M92.2812 35.4473H103.094V46.235L92.2812 35.4473Z" fill="#FFB146"/>
<path d="M67.7016 25.161L51.5481 9.04492L35.3945 25.161H67.7016Z" fill="#F85B18"/>
<path d="M35.3945 96.5977L51.5481 112.714L67.7016 96.5977H35.3945Z" fill="#F85B18"/>
</g>
<defs>
<clipPath id="clip0_3022_668">
<rect width="320" height="120" fill="white"/>
</clipPath>
</defs>
</svg>
