<svg width="241" height="90" viewBox="0 0 241 90" fill="none" xmlns="http://www.w3.org/2000/svg">
<g clip-path="url(#clip0_3022_668)">
<path d="M118.589 39.8077V43.1758H101.408V52.7886H115.469V56.1567H101.408V69.0024H97.791V39.8062H118.587L118.589 39.8077Z" fill="#D0492A"/>
<path d="M134.954 69.4536C132.27 69.4536 129.837 68.8331 127.653 67.5891C125.467 66.3466 123.726 64.6019 122.431 62.3565C121.134 60.1111 120.486 57.4603 120.486 54.4055C120.486 51.3507 121.134 48.6937 122.431 46.433C123.726 44.1722 125.467 42.4275 127.653 41.2004C129.837 39.9732 132.272 39.3589 134.954 39.3589C137.636 39.3589 140.069 39.9732 142.255 41.2004C144.439 42.429 146.179 44.1722 147.476 46.433C148.772 48.6937 149.421 51.3507 149.421 54.4055C149.421 57.4603 148.772 60.1096 147.476 62.3565C146.181 64.6019 144.44 66.3466 142.255 67.5891C140.069 68.8316 137.636 69.4536 134.954 69.4536ZM134.954 66.084C137.003 66.084 138.841 65.6417 140.469 64.7586C142.097 63.8754 143.392 62.5654 144.357 60.8283C145.322 59.0928 145.804 56.9504 145.804 54.4055C145.804 51.8606 145.322 49.7273 144.357 48.0041C143.392 46.2824 142.097 44.9724 140.469 44.0739C138.841 43.1754 137.003 42.727 134.954 42.727C132.904 42.727 131.103 43.1754 129.461 44.0739C127.818 44.9724 126.515 46.2824 125.55 48.0041C124.586 49.7258 124.104 51.8606 124.104 54.4055C124.104 56.9504 124.586 59.0928 125.55 60.8283C126.515 62.5654 127.818 63.8754 129.461 64.7586C131.103 65.6417 132.935 66.084 134.954 66.084Z" fill="#D0492A"/>
<path d="M168.409 69.4536C165.725 69.4536 163.292 68.8331 161.108 67.5891C158.922 66.3466 157.181 64.6019 155.886 62.3565C154.589 60.1111 153.941 57.4603 153.941 54.4055C153.941 51.3507 154.589 48.6937 155.886 46.433C157.181 44.1722 158.922 42.4275 161.108 41.2004C163.292 39.9732 165.727 39.3589 168.409 39.3589C171.091 39.3589 173.524 39.9732 175.71 41.2004C177.894 42.429 179.635 44.1722 180.932 46.433C182.227 48.6937 182.876 51.3507 182.876 54.4055C182.876 57.4603 182.227 60.1096 180.932 62.3565C179.636 64.6019 177.896 66.3466 175.71 67.5891C173.524 68.8316 171.091 69.4536 168.409 69.4536ZM168.409 66.084C170.459 66.084 172.297 65.6417 173.924 64.7586C175.552 63.8754 176.847 62.5654 177.812 60.8283C178.777 59.0928 179.259 56.9504 179.259 54.4055C179.259 51.8606 178.777 49.7273 177.812 48.0041C176.847 46.2824 175.552 44.9724 173.924 44.0739C172.297 43.1754 170.459 42.727 168.409 42.727C166.359 42.727 164.558 43.1754 162.916 44.0739C161.273 44.9724 159.97 46.2824 159.006 48.0041C158.041 49.7258 157.559 51.8606 157.559 54.4055C157.559 56.9504 158.041 59.0928 159.006 60.8283C159.97 62.5654 161.273 63.8754 162.916 64.7586C164.558 65.6417 166.39 66.084 168.409 66.084Z" fill="#D0492A"/>
<path d="M198.291 39.8076C201.245 39.8076 203.723 40.19 205.728 40.9533C207.732 41.7167 209.338 42.7718 210.543 44.1202C211.749 45.4672 212.623 47.0107 213.165 48.7462C213.708 50.4832 213.978 52.3247 213.978 54.2706C213.978 56.2165 213.691 58.0733 213.119 59.8411C212.545 61.6088 211.633 63.18 210.384 64.5576C209.134 65.9353 207.514 67.0211 205.524 67.8136C203.535 68.6076 201.123 69.0039 198.291 69.0039H188.752V39.8076H198.291ZM192.369 65.6358H198.291C200.672 65.6358 202.638 65.3071 204.192 64.6482C205.744 63.9894 206.973 63.1139 207.877 62.0204C208.781 60.9269 209.421 59.7074 209.798 58.359C210.176 57.0121 210.364 55.6498 210.364 54.2721C210.364 52.8945 210.176 51.5475 209.798 50.2298C209.421 48.9121 208.781 47.7218 207.877 46.659C206.973 45.5962 205.744 44.7499 204.192 44.1218C202.64 43.4936 200.672 43.1788 198.291 43.1788H192.369V65.6373V65.6358Z" fill="#D0492A"/>
<path d="M217.867 59.5261H221.122C221.212 60.7839 221.589 61.9066 222.252 62.8942C222.915 63.8817 223.827 64.6619 224.987 65.2302C226.146 65.8 227.511 66.0841 229.079 66.0841C230.434 66.0841 231.572 65.8814 232.492 65.4775C233.412 65.0735 234.104 64.5114 234.571 63.7926C235.038 63.0739 235.271 62.2353 235.271 61.2769C235.271 60.3186 235.03 59.4954 234.548 58.8964C234.065 58.2974 233.373 57.7891 232.469 57.3698C231.564 56.9505 230.495 56.5466 229.26 56.1565C228.085 55.7971 226.893 55.3778 225.689 54.8986C224.483 54.4194 223.361 53.8358 222.32 53.1462C221.28 52.4582 220.444 51.6273 219.811 50.6536C219.179 49.6814 218.862 48.5049 218.862 47.1273C218.862 45.7496 219.232 44.5148 219.971 43.3322C220.71 42.1496 221.793 41.1913 223.226 40.4572C224.658 39.723 226.383 39.356 228.403 39.356C231.567 39.356 233.934 40.2099 235.502 41.9162C237.069 43.6225 237.822 45.8848 237.762 48.6985H234.506C234.446 46.5729 233.843 45.0447 232.697 44.117C231.552 43.1894 230.06 42.724 228.222 42.724C226.686 42.724 225.344 43.0757 224.198 43.7792C223.053 44.4826 222.481 45.5838 222.481 47.0812C222.481 47.7401 222.609 48.316 222.866 48.8106C223.121 49.3051 223.545 49.7612 224.132 50.1805C224.719 50.5998 225.519 51.0114 226.528 51.4153C227.537 51.8193 228.78 52.2616 230.258 52.7408C231.223 53.0403 232.209 53.3996 233.22 53.8189C234.229 54.2382 235.165 54.7619 236.022 55.3916C236.882 56.0198 237.574 56.8215 238.102 57.7952C238.629 58.7689 238.893 59.9899 238.893 61.4566C238.893 62.9234 238.555 64.1735 237.876 65.3868C237.197 66.6002 236.143 67.5816 234.712 68.3295C233.28 69.0775 231.434 69.4522 229.173 69.4522C227.244 69.4522 225.593 69.1896 224.222 68.6659C222.851 68.1421 221.727 67.4602 220.853 66.6217C219.978 65.7831 219.309 64.9077 218.842 63.9938C218.374 63.08 218.066 62.2199 217.915 61.4106C217.763 60.6027 217.749 59.973 217.87 59.5246L217.867 59.5261Z" fill="#D0492A"/>
<path d="M108.212 16.415C106.483 13.2896 105.904 11.4128 105.822 10.7754C105.819 10.757 105.817 10.7386 105.816 10.7217H103.314C103.259 11.3068 102.696 13.2005 100.918 16.415C98.3399 21.0809 98.3105 25.3643 98.3105 25.5456H100.397C100.397 25.5087 100.438 21.5923 102.747 17.4133C103.554 15.9543 104.146 14.7056 104.565 13.6843C104.982 14.7072 105.576 15.9543 106.383 17.4133C108.675 21.5601 108.732 25.4503 108.732 25.5456H109.776H110.819C110.819 25.3659 110.79 21.0824 108.212 16.415Z" fill="#D0492A"/>
<path d="M174.686 25.7652C170.171 25.971 166.452 22.2773 166.659 17.7896C166.84 13.8778 170.029 10.7094 173.966 10.5297C178.483 10.3239 182.2 14.0176 181.993 18.5053C181.812 22.4171 178.623 25.5855 174.686 25.7652ZM174.692 12.6061C171.324 12.3927 168.534 15.1633 168.75 18.5099C168.928 21.2775 171.177 23.5121 173.963 23.6887C177.331 23.9022 180.121 21.1316 179.905 17.785C179.727 15.0189 177.478 12.7843 174.692 12.6061Z" fill="#D0492A"/>
<path d="M134.699 23.4737H127.16C127.428 21.9363 128.012 19.7155 129.284 17.4133C131.204 13.9392 131.921 11.6032 131.946 10.7124H129.861L129.856 10.7354C129.856 10.7354 129.261 13.1498 127.455 16.4165C124.877 21.0824 124.848 25.3658 124.848 25.5455H125.814H126.114H126.933H134.699V23.4721V23.4737Z" fill="#D0492A"/>
<path d="M122.76 23.4737H115.221C115.488 21.9363 116.073 19.7155 117.345 17.4133C119.265 13.9392 119.982 11.6032 120.007 10.7124H117.921L117.917 10.7354C117.917 10.7354 117.322 13.1498 115.516 16.4165C112.938 21.0824 112.908 25.3658 112.908 25.5455H113.874H114.174H114.994H122.76V23.4721V23.4737Z" fill="#D0492A"/>
<path d="M149.128 19.9857C148.78 20.9409 148.171 21.7995 147.369 22.4476C146.363 23.2631 145.09 23.7116 143.789 23.7116C142.616 23.7116 141.49 23.3599 140.533 22.6918C140.21 22.466 139.915 22.2111 139.649 21.9316H139.655C139.764 21.5522 140.09 20.623 140.669 19.9288C141.804 18.5696 143.602 17.8601 146.012 17.8201C150.028 17.7526 150.991 15.6822 151.088 15.4457C150.53 14.0082 149.561 12.7795 148.286 11.8949C146.913 10.9427 145.287 10.4604 143.6 10.5126C139.417 10.6416 136.064 14.1034 136.086 18.2594C136.091 19.0857 136.225 19.895 136.488 20.6676L136.482 20.6706C137.024 22.1804 138.012 23.4659 139.337 24.3889C140.646 25.3027 142.186 25.785 143.79 25.785C145.571 25.785 147.31 25.1706 148.689 24.0556C149.978 23.0128 150.903 21.5752 151.311 19.9857H149.13H149.128ZM143.661 12.5845C144.896 12.5461 146.088 12.8962 147.091 13.5935C147.697 14.0143 148.207 14.5411 148.603 15.1447C148.171 15.4073 147.367 15.7222 145.978 15.7452C142.104 15.8097 140.033 17.3932 138.977 18.7094C138.726 19.0212 138.521 19.3329 138.351 19.6293C138.238 19.1962 138.178 18.7493 138.171 18.2962C138.13 15.243 140.589 12.6797 143.661 12.5829" fill="#D0492A"/>
<path d="M155.526 19.8522C157.254 22.9777 157.832 24.8544 157.916 25.4918C157.919 25.5102 157.92 25.5287 157.922 25.5456H160.423C160.479 24.9604 161.041 23.0667 162.819 19.8522C165.397 15.1864 165.427 10.9029 165.427 10.7217H163.34C163.34 10.7585 163.3 14.6749 160.99 18.8539C160.183 20.313 159.591 21.5616 159.172 22.5829C158.755 21.5601 158.161 20.313 157.354 18.8539C155.062 14.7072 155.005 10.8169 155.005 10.7217H153.961H152.918C152.918 10.9014 152.947 15.1848 155.526 19.8522Z" fill="#D0492A"/>
<path d="M38.8368 38.9413C38.6853 38.9413 26.444 39.0718 11.5005 45.0477C11.2439 45.1476 10.9873 45.252 10.7306 45.3626C8.99005 46.0768 7.22008 46.8662 5.42383 47.7508V37.5421C23.224 29.7969 38.1165 29.6909 38.826 29.6909V29.6955L38.8368 38.9397V38.9413Z" fill="#C1C1C1"/>
<path d="M72.2416 42.8497V53.7941C54.4461 61.5454 39.5582 61.6452 38.8487 61.6452L38.8379 51.9004C38.9229 51.9004 39.0033 51.9004 39.0899 51.8896C39.1501 51.8896 39.2259 51.885 39.3063 51.8789C39.3063 51.8789 39.3063 51.8835 39.3109 51.8789C41.6946 51.7591 52.7859 50.9097 66.0892 45.5927C66.3103 45.5021 66.5267 45.4176 66.7478 45.3224C68.5486 44.5882 70.3835 43.7681 72.2401 42.8481" fill="#C1C1C1"/>
<path d="M45.3574 45.421C45.3574 48.9979 42.4389 51.8976 38.8386 51.8976C35.2384 51.8976 32.3184 48.9979 32.3184 45.421C32.3184 41.844 35.2369 38.9443 38.8386 38.9443C42.4404 38.9443 45.3574 41.844 45.3574 45.421Z" fill="#C1C1C1"/>
<path d="M72.2411 37.8369V48.1009C70.4047 47.1871 68.5698 46.2625 66.7488 45.3226C57.2528 40.4555 47.933 35.2874 38.8281 29.6954V18.8018C49.7231 25.6485 60.8438 31.9746 72.2411 37.8369Z" fill="#C1C1C1"/>
<path d="M10.7306 45.3623C8.96995 44.4178 7.19998 43.4886 5.42383 42.5732V52.997C16.8258 58.8639 27.9527 65.1946 38.8461 72.0367V61.6422C29.6469 55.9903 20.2869 50.4828 10.7291 45.3608" fill="#C1C1C1"/>
<path d="M5.47563 40.0132L-0.00585938 45.4608L5.47563 50.9084L10.9587 45.4562L5.47563 40.0132Z" fill="#F85B18"/>
<path d="M77.7524 45.461L72.2693 40.0088L66.7832 45.4564L72.2693 50.9086L77.7524 45.461Z" fill="#F85B18"/>
<path d="M47.1855 81.4483L54.7663 88.98L71.2587 61.4194L63.5064 65.2314L47.1855 81.4483Z" fill="#FFB146"/>
<path d="M69.498 64.3359H77.6415V56.2451L69.498 64.3359Z" fill="#FFB146"/>
<path d="M50.1554 72.8799L44.3555 78.6423L49.7318 83.9794L71.848 62.0062L77.6417 56.2452L72.27 50.9082L66.4716 56.6691L50.1554 72.8799Z" fill="#FF7B00"/>
<path d="M30.4931 81.5235L22.9123 89.0552L6.41992 61.4946L14.1722 65.3066L30.4931 81.5235Z" fill="#FFB146"/>
<path d="M22.222 78.2169L5.90581 62.0062L0.107422 56.2452L5.4838 50.9082L11.2776 56.6645L27.5999 72.8799L33.3937 78.6377L28.0219 83.9794L22.222 78.2169Z" fill="#FF7B00"/>
<path d="M8.25083 64.3359H0.107422V56.2451L8.25083 64.3359Z" fill="#FFB146"/>
<path d="M30.5634 9.47314L22.9826 1.94141L6.49023 29.502L14.2425 25.69L30.5634 9.47314Z" fill="#FFB146"/>
<path d="M8.25083 26.5854H0.107422V34.6762L8.25083 26.5854Z" fill="#FFB146"/>
<path d="M27.5937 18.0414L33.3937 12.2789L28.0173 6.94189L5.90117 28.9151L0.107422 34.676L5.47916 40.0131L11.2776 34.2521L27.5937 18.0414Z" fill="#FF7B00"/>
<path d="M47.2559 9.39795L54.8366 1.86621L71.329 29.4268L63.5767 25.6148L47.2559 9.39795Z" fill="#FFB146"/>
<path d="M55.5271 12.7044L71.8433 28.9151L77.6417 34.676L72.2653 40.0146L66.4716 34.2567L50.1492 18.0414L44.3555 12.2835L49.7272 6.94189L55.5271 12.7044Z" fill="#FF7B00"/>
<path d="M69.498 26.5854H77.6415V34.6762L69.498 26.5854Z" fill="#FFB146"/>
<path d="M50.9875 18.8707L38.8219 6.78369L26.6562 18.8707H50.9875Z" fill="#F85B18"/>
<path d="M26.6562 72.4482L38.8219 84.5353L50.9875 72.4482H26.6562Z" fill="#F85B18"/>
</g>
<defs>
<clipPath id="clip0_3022_668">
<rect width="241" height="90" fill="white"/>
</clipPath>
</defs>
</svg>
