<svg width="201" height="75" viewBox="0 0 201 75" fill="none" xmlns="http://www.w3.org/2000/svg">
<g clip-path="url(#clip0_3022_668)">
<path d="M98.9062 33.1727V35.9794H84.5774V43.9901H96.3045V46.7968H84.5774V57.5016H81.5605V33.1714H98.9049L98.9062 33.1727Z" fill="#D0492A"/>
<path d="M112.556 57.8777C110.318 57.8777 108.289 57.3607 106.467 56.324C104.644 55.2886 103.193 53.8347 102.112 51.9635C101.03 50.0923 100.49 47.8833 100.49 45.3377C100.49 42.792 101.03 40.5778 102.112 38.6939C103.193 36.8099 104.644 35.356 106.467 34.3334C108.289 33.3108 110.32 32.7988 112.556 32.7988C114.793 32.7988 116.823 33.3108 118.646 34.3334C120.467 35.3573 121.919 36.8099 123.001 38.6939C124.081 40.5778 124.623 42.792 124.623 45.3377C124.623 47.8833 124.081 50.0911 123.001 51.9635C121.92 53.8347 120.469 55.2886 118.646 56.324C116.823 57.3594 114.793 57.8777 112.556 57.8777ZM112.556 55.0697C114.266 55.0697 115.799 54.7011 117.156 53.9652C118.514 53.2293 119.594 52.1376 120.399 50.69C121.203 49.2438 121.606 47.4584 121.606 45.3377C121.606 43.2169 121.203 41.4392 120.399 40.0032C119.594 38.5685 118.514 37.4767 117.156 36.728C115.799 35.9793 114.266 35.6056 112.556 35.6056C110.847 35.6056 109.345 35.9793 107.976 36.728C106.605 37.4767 105.518 38.5685 104.714 40.0032C103.909 41.4379 103.507 43.2169 103.507 45.3377C103.507 47.4584 103.909 49.2438 104.714 50.69C105.518 52.1376 106.605 53.2293 107.976 53.9652C109.345 54.7011 110.873 55.0697 112.556 55.0697Z" fill="#D0492A"/>
<path d="M140.457 57.8777C138.219 57.8777 136.189 57.3607 134.368 56.324C132.545 55.2886 131.093 53.8347 130.013 51.9635C128.931 50.0923 128.391 47.8833 128.391 45.3377C128.391 42.792 128.931 40.5778 130.013 38.6939C131.093 36.8099 132.545 35.356 134.368 34.3334C136.189 33.3108 138.22 32.7988 140.457 32.7988C142.694 32.7988 144.723 33.3108 146.546 34.3334C148.368 35.3573 149.819 36.8099 150.901 38.6939C151.981 40.5778 152.523 42.792 152.523 45.3377C152.523 47.8833 151.981 50.0911 150.901 51.9635C149.821 53.8347 148.369 55.2886 146.546 56.324C144.723 57.3594 142.694 57.8777 140.457 57.8777ZM140.457 55.0697C142.166 55.0697 143.699 54.7011 145.057 53.9652C146.414 53.2293 147.495 52.1376 148.299 50.69C149.104 49.2438 149.506 47.4584 149.506 45.3377C149.506 43.2169 149.104 41.4392 148.299 40.0032C147.495 38.5685 146.414 37.4767 145.057 36.728C143.699 35.9793 142.166 35.6056 140.457 35.6056C138.747 35.6056 137.245 35.9793 135.876 36.728C134.506 37.4767 133.419 38.5685 132.614 40.0032C131.81 41.4379 131.407 43.2169 131.407 45.3377C131.407 47.4584 131.81 49.2438 132.614 50.69C133.419 52.1376 134.506 53.2293 135.876 53.9652C137.245 54.7011 138.773 55.0697 140.457 55.0697Z" fill="#D0492A"/>
<path d="M165.38 33.1729C167.844 33.1729 169.91 33.4915 171.582 34.1276C173.253 34.7637 174.593 35.643 175.598 36.7667C176.604 37.8892 177.333 39.1754 177.785 40.6217C178.238 42.0692 178.463 43.6037 178.463 45.2253C178.463 46.8469 178.223 48.3943 177.746 49.8674C177.268 51.3405 176.507 52.6498 175.466 53.7979C174.423 54.9459 173.072 55.8508 171.412 56.5112C169.753 57.1729 167.742 57.5031 165.38 57.5031H157.424V33.1729H165.38ZM160.441 54.6963H165.38C167.365 54.6963 169.005 54.4224 170.301 53.8734C171.595 53.3243 172.62 52.5948 173.375 51.6835C174.129 50.7723 174.662 49.756 174.977 48.6323C175.292 47.5099 175.449 46.3746 175.449 45.2266C175.449 44.0786 175.292 42.9561 174.977 41.858C174.662 40.7599 174.129 39.768 173.375 38.8823C172.62 37.9967 171.595 37.2915 170.301 36.768C169.007 36.2445 167.365 35.9822 165.38 35.9822H160.441V54.6976V54.6963Z" fill="#D0492A"/>
<path d="M181.705 49.6048H184.421C184.495 50.653 184.81 51.5886 185.363 52.4116C185.916 53.2345 186.677 53.8847 187.644 54.3582C188.611 54.8331 189.749 55.0699 191.056 55.0699C192.187 55.0699 193.136 54.9009 193.903 54.5643C194.67 54.2277 195.248 53.7593 195.637 53.1603C196.027 52.5613 196.221 51.8625 196.221 51.0639C196.221 50.2652 196.02 49.5792 195.618 49.0801C195.216 48.5809 194.638 48.1573 193.884 47.8079C193.13 47.4585 192.237 47.1219 191.207 46.7968C190.227 46.4973 189.233 46.1479 188.229 45.7486C187.223 45.3493 186.287 44.8629 185.42 44.2883C184.552 43.7149 183.855 43.0225 183.327 42.2111C182.8 41.4009 182.536 40.4205 182.536 39.2725C182.536 38.1245 182.844 37.0954 183.46 36.11C184.076 35.1245 184.98 34.3258 186.175 33.7141C187.369 33.1023 188.808 32.7964 190.493 32.7964C193.132 32.7964 195.106 33.508 196.413 34.9299C197.721 36.3518 198.348 38.2371 198.298 40.5818H195.583C195.533 38.8105 195.03 37.537 194.075 36.764C193.119 35.9909 191.875 35.6031 190.342 35.6031C189.061 35.6031 187.942 35.8962 186.986 36.4824C186.031 37.0686 185.554 37.9862 185.554 39.2341C185.554 39.7832 185.661 40.2631 185.875 40.6752C186.088 41.0873 186.441 41.4675 186.931 41.8169C187.421 42.1663 188.087 42.5093 188.929 42.8459C189.771 43.1825 190.808 43.5511 192.04 43.9504C192.845 44.2 193.667 44.4995 194.51 44.8489C195.352 45.1983 196.132 45.6347 196.848 46.1594C197.565 46.6829 198.142 47.351 198.582 48.1624C199.021 48.9739 199.242 49.9914 199.242 51.2136C199.242 52.4359 198.96 53.4777 198.394 54.4888C197.828 55.4999 196.948 56.3177 195.754 56.941C194.561 57.5643 193.021 57.8766 191.135 57.8766C189.526 57.8766 188.149 57.6577 187.006 57.2213C185.862 56.7849 184.925 56.2166 184.196 55.5178C183.467 54.819 182.908 54.0895 182.519 53.328C182.128 52.5664 181.872 51.8497 181.745 51.1752C181.619 50.502 181.607 49.9773 181.708 49.6036L181.705 49.6048Z" fill="#D0492A"/>
<path d="M90.2499 13.679C88.8085 11.0745 88.325 9.51051 88.2567 8.97937C88.2541 8.96401 88.2528 8.94865 88.2515 8.93457H86.1655C86.1191 9.4222 85.6498 11.0003 84.1672 13.679C82.0167 17.5673 81.9922 21.1368 81.9922 21.2878H83.7327C83.7327 21.2571 83.7662 17.9934 85.6924 14.5109C86.3653 13.2951 86.8591 12.2545 87.2085 11.4034C87.5566 12.2558 88.0517 13.2951 88.7247 14.5109C90.6366 17.9666 90.6844 21.2085 90.6844 21.2878H91.5546H92.4248C92.4248 21.1381 92.4004 17.5685 90.2499 13.679Z" fill="#D0492A"/>
<path d="M145.692 21.4712C141.926 21.6427 138.824 18.5646 138.997 14.8248C139.148 11.565 141.808 8.92465 145.091 8.7749C148.859 8.6034 151.959 11.6815 151.787 15.4212C151.636 18.681 148.976 21.3214 145.692 21.4712ZM145.697 10.5053C142.888 10.3274 140.561 12.6363 140.741 15.4251C140.89 17.7314 142.766 19.5936 145.089 19.7408C147.898 19.9187 150.225 17.6098 150.045 14.821C149.897 12.5159 148.021 10.6537 145.697 10.5053Z" fill="#D0492A"/>
<path d="M112.341 19.5616H106.054C106.277 18.2805 106.764 16.4298 107.825 14.5113C109.426 11.6162 110.025 9.66957 110.045 8.92725H108.306L108.302 8.94644C108.302 8.94644 107.806 10.9584 106.3 13.6807C104.149 17.5689 104.125 21.1384 104.125 21.2882H104.931H105.181H105.864H112.341V19.5603V19.5616Z" fill="#D0492A"/>
<path d="M102.384 19.5616H96.0967C96.3197 18.2805 96.8071 16.4298 97.8681 14.5113C99.4694 11.6162 100.068 9.66957 100.088 8.92725H98.349L98.3452 8.94644C98.3452 8.94644 97.8488 10.9584 96.3429 13.6807C94.1925 17.5689 94.168 21.1384 94.168 21.2882H94.9738H95.2239H95.9072H102.384V19.5603V19.5616Z" fill="#D0492A"/>
<path d="M124.376 16.6547C124.086 17.4508 123.578 18.1662 122.908 18.7063C122.069 19.3859 121.008 19.7597 119.922 19.7597C118.944 19.7597 118.005 19.4666 117.207 18.9098C116.938 18.7217 116.692 18.5092 116.47 18.2763H116.475C116.565 17.9602 116.837 17.1859 117.321 16.6074C118.267 15.4747 119.766 14.8834 121.776 14.8501C125.126 14.7938 125.929 13.0685 126.01 12.8714C125.545 11.6735 124.737 10.6496 123.673 9.9124C122.528 9.11888 121.172 8.717 119.765 8.76052C116.276 8.86803 113.48 11.7528 113.498 15.2162C113.502 15.9047 113.614 16.5792 113.833 17.223L113.828 17.2255C114.281 18.4836 115.105 19.5549 116.209 20.3241C117.301 21.0856 118.586 21.4875 119.924 21.4875C121.409 21.4875 122.859 20.9755 124.009 20.0464C125.085 19.1773 125.856 17.9794 126.196 16.6547H124.377H124.376ZM119.815 10.4871C120.846 10.4551 121.84 10.7469 122.676 11.3279C123.182 11.6786 123.607 12.1176 123.937 12.6206C123.578 12.8394 122.907 13.1018 121.748 13.121C118.517 13.1748 116.79 14.4943 115.909 15.5912C115.7 15.851 115.529 16.1108 115.387 16.3578C115.293 15.9969 115.242 15.6244 115.237 15.2469C115.203 12.7025 117.254 10.5664 119.815 10.4858" fill="#D0492A"/>
<path d="M129.712 16.5434C131.153 19.1479 131.636 20.7119 131.705 21.243C131.708 21.2584 131.709 21.2737 131.71 21.2878H133.796C133.843 20.8002 134.312 19.2221 135.795 16.5434C137.945 12.6551 137.97 9.08559 137.97 8.93457H136.229C136.229 8.96529 136.196 12.2289 134.27 15.7114C133.597 16.9273 133.103 17.9678 132.753 18.819C132.405 17.9666 131.91 16.9273 131.237 15.7114C129.325 12.2558 129.278 9.01392 129.278 8.93457H128.407H127.537C127.537 9.08431 127.562 12.6539 129.712 16.5434Z" fill="#D0492A"/>
<path d="M32.3907 32.4508C32.2644 32.4508 22.0547 32.5596 9.5915 37.5395C9.37749 37.6227 9.16347 37.7098 8.94945 37.8019C7.49775 38.397 6.02155 39.0549 4.52344 39.7921V31.2848C19.3692 24.8305 31.7899 24.7422 32.3817 24.7422V24.746L32.3907 32.4495V32.4508Z" fill="#C1C1C1"/>
<path d="M60.2502 35.7083V44.8286C45.4083 51.2881 32.9914 51.3713 32.3997 51.3713L32.3906 43.2505C32.4615 43.2505 32.5286 43.2505 32.6008 43.2416C32.6511 43.2416 32.7142 43.2377 32.7813 43.2326C32.7813 43.2326 32.7813 43.2365 32.7851 43.2326C34.7732 43.1328 44.0236 42.425 55.1189 37.9941C55.3033 37.9186 55.4838 37.8482 55.6681 37.7689C57.1701 37.1571 58.7005 36.4737 60.2489 35.707" fill="#C1C1C1"/>
<path d="M37.83 37.8508C37.83 40.8316 35.3958 43.248 32.3932 43.248C29.3905 43.248 26.9551 40.8316 26.9551 37.8508C26.9551 34.87 29.3892 32.4536 32.3932 32.4536C35.3971 32.4536 37.83 34.87 37.83 37.8508Z" fill="#C1C1C1"/>
<path d="M60.2501 31.5306V40.0839C58.7185 39.3224 57.1881 38.5519 55.6694 37.7686C47.7495 33.7128 39.9765 29.406 32.3828 24.746V15.668C41.4695 21.3736 50.7444 26.6454 60.2501 31.5306Z" fill="#C1C1C1"/>
<path d="M8.94946 37.8023C7.48099 37.0151 6.00479 36.2408 4.52344 35.478V44.1645C14.033 49.0535 23.3131 54.3291 32.3985 60.0309V51.3688C24.7261 46.6589 16.9196 42.0693 8.94817 37.801" fill="#C1C1C1"/>
<path d="M4.56584 33.3442L-0.00585938 37.8839L4.56584 42.4236L9.13884 37.8801L4.56584 33.3442Z" fill="#F85B18"/>
<path d="M64.8478 37.8838L60.2748 33.3403L55.6992 37.88L60.2748 42.4235L64.8478 37.8838Z" fill="#F85B18"/>
<path d="M39.3535 67.8738L45.676 74.1503L59.4311 51.1831L52.9655 54.3597L39.3535 67.8738Z" fill="#FFB146"/>
<path d="M57.9629 53.6134H64.7547V46.8711L57.9629 53.6134Z" fill="#FFB146"/>
<path d="M41.8314 60.7336L36.9941 65.5356L41.4782 69.9831L59.9236 51.6721L64.7557 46.8714L60.2755 42.4238L55.4395 47.2246L41.8314 60.7336Z" fill="#FF7B00"/>
<path d="M25.4311 67.9363L19.1086 74.2127L5.35352 51.2456L11.8191 54.4222L25.4311 67.9363Z" fill="#FFB146"/>
<path d="M18.532 65.1811L4.92389 51.6721L0.0878906 46.8714L4.57192 42.4238L9.40406 47.2208L23.0173 60.7336L27.8494 65.5318L23.3693 69.9831L18.532 65.1811Z" fill="#FF7B00"/>
<path d="M6.87969 53.6134H0.0878906V46.8711L6.87969 53.6134Z" fill="#FFB146"/>
<path d="M25.4917 7.89412L19.1691 1.61768L5.41406 24.5848L11.8797 21.4082L25.4917 7.89412Z" fill="#FFB146"/>
<path d="M6.87969 22.1543H0.0878906V28.8966L6.87969 22.1543Z" fill="#FFB146"/>
<path d="M23.0122 15.0347L27.8494 10.2327L23.3654 5.78516L4.92002 24.0962L0.0878906 28.8969L4.56806 33.3445L9.40406 28.5437L23.0122 15.0347Z" fill="#FF7B00"/>
<path d="M39.4121 7.83163L45.7346 1.55518L59.4897 24.5223L53.0241 21.3457L39.4121 7.83163Z" fill="#FFB146"/>
<path d="M46.3116 10.5872L59.9197 24.0962L64.7557 28.8969L60.2717 33.3457L55.4395 28.5475L41.8263 15.0347L36.9941 10.2365L41.4743 5.78516L46.3116 10.5872Z" fill="#FF7B00"/>
<path d="M57.9629 22.1543H64.7547V28.8966L57.9629 22.1543Z" fill="#FFB146"/>
<path d="M42.5253 15.7258L32.3789 5.65332L22.2324 15.7258H42.5253Z" fill="#F85B18"/>
<path d="M22.2324 60.3735L32.3789 70.4461L42.5253 60.3735H22.2324Z" fill="#F85B18"/>
</g>
<defs>
<clipPath id="clip0_3022_668">
<rect width="201" height="75" fill="white"/>
</clipPath>
</defs>
</svg>
